HIERARCHY
ROOT Hips
{
  OFFSET -33.9132 29.2015 117.021
  CHANNELS 6 Xposition Yposition Zposition Zrotation Xrotation Yrotation
  JOINT LeftUpLeg
  {
    OFFSET 8.64259 1.95398 -2.38835
    CHANNELS 3 Zrotation Xrotation Yrotation
    JOINT LeftLeg
    {
      OFFSET 43.7702 0 0
      CHANNELS 3 Zrotation Xrotation Yrotation
      JOINT LeftFoot
      {
        OFFSET 40.6238 0 0
        CHANNELS 3 Zrotation Xrotation Yrotation
        JOINT LeftToeBase
        {
          OFFSET 12.7242 0 0
          CHANNELS 3 Zrotation Xrotation Yrotation
          End Site
          {
            OFFSET 0 0 0
          }
        }
      }
    }
  }
  JOINT RightUpLeg
  {
    OFFSET -8.2249 1.95398 -2.59336
    CHANNELS 3 Zrotation Xrotation Yrotation
    JOINT RightLeg
    {
      OFFSET 43.5653 0 0
      CHANNELS 3 Zrotation Xrotation Yrotation
      JOINT RightFoot
      {
        OFFSET 40.6238 0 0
        CHANNELS 3 Zrotation Xrotation Yrotation
        JOINT RightToeBase
        {
          OFFSET 12.7242 0 0
          CHANNELS 3 Zrotation Xrotation Yrotation
          End Site
          {
            OFFSET 0 0 0
          }
        }
      }
    }
  }
  JOINT Spine
  {
    OFFSET 0.165834 0.87714 6.61349
    CHANNELS 3 Zrotation Xrotation Yrotation
    JOINT Spine1
    {
      OFFSET 7.38963 1.71661e-005 0
      CHANNELS 3 Zrotation Xrotation Yrotation
      JOINT Spine2
      {
        OFFSET 11.9445 1.14441e-005 0
        CHANNELS 3 Zrotation Xrotation Yrotation
        JOINT Spine3
        {
          OFFSET 14.7254 4.19617e-005 0
          CHANNELS 3 Zrotation Xrotation Yrotation
          JOINT Spine4
          {
            OFFSET 10.9679 0 0
            CHANNELS 3 Zrotation Xrotation Yrotation
            JOINT RightShoulder
            {
              OFFSET 2.46616 -1.6653 3.69651
              CHANNELS 3 Zrotation Xrotation Yrotation
              JOINT RightArm
              {
                OFFSET 13.0012 0 0
                CHANNELS 3 Zrotation Xrotation Yrotation
                JOINT RightForeArm
                {
                  OFFSET 28.7848 1.62311e-005 0
                  CHANNELS 3 Zrotation Xrotation Yrotation
                  JOINT RightHand
                  {
                    OFFSET 26.5688 1.62095e-005 0
                    CHANNELS 3 Zrotation Xrotation Yrotation
                    End Site
                    {
                      OFFSET 0 0 0
                    }
                  }
                }
              }
            }
            JOINT LeftShoulder
            {
              OFFSET 2.38034 -1.29275 -3.7523
              CHANNELS 3 Zrotation Xrotation Yrotation
              JOINT LeftArm
              {
                OFFSET 16.3182 6.07031e-005 0
                CHANNELS 3 Zrotation Xrotation Yrotation
                JOINT LeftForeArm
                {
                  OFFSET 27.0901 0 0
                  CHANNELS 3 Zrotation Xrotation Yrotation
                  JOINT LeftHand
                  {
                    OFFSET 24.5451 1.51738e-005 0
                    CHANNELS 3 Zrotation Xrotation Yrotation
                    End Site
                    {
                      OFFSET 0 0 0
                    }
                  }
                }
              }
            }
            JOINT Neck
            {
              OFFSET 5.0226 -0.0266342 0
              CHANNELS 3 Zrotation Xrotation Yrotation
              JOINT Head
              {
                OFFSET 6.69364 2.86102e-005 0
                CHANNELS 3 Zrotation Xrotation Yrotation
                End Site
                {
                  OFFSET 0 0 0
                }
              }
            }
          }
        }
      }
    }
  }
}
MOTION
Frames:	7
Frame Time:	0.0416667
25.8573 99.5073 21.357 -101.238 -47.9963 -103.525 -174.687 0.265237 83.235 -20.9673 2.30755 -2.40301 74.8983 6.07311 -1.69691 9.32106 -15.2379 8.192 160.113 7.28006 71.2219 -19.3211 2.20214 2.65189 60.1096 -1.52073 2.21813 33.3134 -1.81115 -1.26384 1.33735 7.70987 -89.7409 11.4541 2.78188 0.233688 -0.2139 2.78949 0.110906 -22.7702 2.58298 1.0595 -2.7576 2.58296 1.05949 89.9612 -27.679 -107.759 51.9651 4.0462 -4.74658 -4.82652 -34.3357 -5.19836 -24.7746 1.60306 -12.6996 -87.4703 -54.0821 83.1959 -17.3021 -17.7418 1.45784 -8.67559 20.2405 -0.0171341 6.04479 -0.460304 -12.5428 -3.00433 25.1745 13.417 3.96961 23.4484 0.0132692 
25.9866 99.5243 21.3739 -101.642 -49.2685 -104.296 -174.614 0.276771 83.0817 -20.9341 3.80331 -2.66843 74.6153 6.31235 -1.44451 11.0489 -14.6735 8.999 159.686 7.18984 70.6497 -19.3953 3.07803 2.82222 60.0593 -1.42154 2.50973 33.7131 -1.95297 -1.48725 1.37759 7.72806 -89.6769 11.4161 2.89188 0.351418 -0.251667 2.90457 0.223689 -22.809 2.65249 1.20488 -2.7964 2.65249 1.20489 89.891 -27.8729 -107.823 51.9009 3.98821 -4.99879 -4.90839 -35.7713 -5.2376 -22.9475 1.69154 -13.7774 -87.5988 -54.2935 83.0452 -16.6043 -17.1663 0.157581 -9.07161 17.9231 -0.0137542 6.01128 -0.531557 -13.0848 -3.46198 24.4241 12.8751 3.61743 22.8134 -0.23276 
26.2738 99.6122 21.2336 -102.165 -49.7179 -104.641 -174.759 0.129333 83.0556 -20.6862 4.17174 -2.53171 74.2519 6.3953 -1.20663 10.7376 -14.5559 8.53961 159.93 6.48975 70.7439 -18.7123 3.81799 2.73458 59.7458 -1.28778 2.33276 33.6374 -1.93187 -1.41469 1.38172 7.77169 -89.692 11.3292 2.89317 0.324198 -0.338503 2.90463 0.196427 -22.8961 2.66187 1.17931 -2.88343 2.66188 1.17931 90.0425 -27.7808 -107.551 52.0845 3.6439 -5.77124 -4.98593 -37.0882 -5.27651 -23.686 1.64888 -13.294 -87.8102 -54.275 82.7394 -17.1521 -16.5671 -2.49028 -9.12709 20.0254 -0.0285179 6.73601 -0.761473 -14.8869 -3.54208 24.1007 12.4942 3.71921 22.5558 0.0543039 
26.509 99.6083 21.1006 -102.511 -49.2174 -104.856 -174.558 0.0983823 83.0698 -21.3078 3.91206 -2.75008 74.9221 6.43569 -2.41441 10.6875 -16.5904 11.3742 160.272 6.49419 70.8024 -18.9544 3.63535 2.52457 59.9417 -1.32413 2.55429 33.114 -1.55371 -2.07482 1.30109 7.84699 -89.7035 11.1784 2.72745 0.323161 -0.489729 2.73905 0.202702 -23.0447 2.50416 1.12842 -3.03204 2.50417 1.12842 89.9252 -27.66 -107.841 51.9936 3.25092 -7.03034 -4.97557 -36.9145 -5.2712 -24.469 1.66295 -13.0866 -87.6991 -54.2054 82.8873 -18.0623 -15.5966 -5.99883 -9.24502 22.9328 -0.0203118 6.93862 -0.868506 -15.9313 -3.16632 23.6947 12.5945 3.8694 22.0705 -0.340352 
26.7134 99.557 20.9542 -101.698 -47.2267 -104.1 -174.638 0.227495 82.8226 -20.8791 1.16226 -2.74881 74.5204 6.0477 -2.15041 11.0591 -14.5634 8.85054 160.743 7.98911 70.9972 -20.0939 1.71897 2.34056 60.2257 -1.34433 2.45757 32.4498 -1.25401 -2.0011 1.3235 7.86566 -89.7397 11.1421 2.7552 0.24961 -0.525966 2.76353 0.128012 -23.0818 2.55272 1.06664 -3.06915 2.55275 1.06665 90.6157 -27.1678 -106.617 52.2322 2.87651 -7.78689 -4.96625 -36.7602 -5.26647 -24.8666 2.21032 -15.4802 -88.1104 -54.613 82.3664 -18.352 -14.4308 -8.96759 -9.59422 23.9211 -0.127692 6.97663 -0.987576 -17.2627 -1.85334 20.5245 11.9856 3.41538 18.7906 -1.15549 
26.5617 99.6259 20.6987 -101.256 -44.3318 -102.77 -174.172 -0.0868094 83.6097 -20.8672 -0.667574 -2.90044 74.9281 6.08769 -2.6306 12.3153 -15.5854 11.5328 161.828 8.09586 72.2263 -20.01 0.0010485 2.03781 60.0527 -1.21461 2.28865 31.9403 -1.03836 -1.87919 1.24719 7.95382 -89.756 10.9657 2.59597 0.238597 -0.702685 2.60396 0.124021 -23.2562 2.40417 1.0082 -3.2435 2.40418 1.00819 89.704 -28.0012 -108.151 50.8563 3.31038 -8.39579 -4.92483 -36.0547 -5.24571 -24.0693 2.26269 -16.0896 -88.855 -54.8807 81.3531 -18.9172 -17.6858 -10.961 -8.09736 27.0557 -0.0341519 7.5026 -1.07845 -17.7262 -1.26783 12.9832 9.2437 5.65176 11.5502 -1.15804 
25.9377 99.8712 20.332 -100.497 -40.8049 -100.724 -173.941 -0.443551 84.7858 -20.3314 -4.10527 -2.42967 74.5468 5.4864 -2.89465 12.9555 -14.7612 10.9802 163.162 7.50575 74.159 -18.6191 -1.86078 1.89848 59.31 -0.779426 2.14742 31.2411 -0.781966 -1.51665 1.09689 7.95435 -89.7786 10.9645 2.28623 0.223005 -0.704454 2.29384 0.12211 -23.2538 2.11347 0.900103 -3.24113 2.11347 0.900094 89.3962 -28.595 -108.527 50.582 3.50981 -8.18595 -4.94007 -36.3149 -5.25316 -24.6746 2.22196 -15.6219 -88.4056 -53.3416 81.7236 -18.9316 -14.5359 -9.92009 -9.50818 24.4275 -0.0135905 9.1428 -1.2959 -17.2547 -0.495661 2.29014 4.14277 6.06798 1.57671 -1.48873 
